<?xml version="1.0" standalone="no"?>
<!DOCTYPE svg PUBLIC "-//W3C//DTD SVG 20010904//EN"
 "http://www.w3.org/TR/2001/REC-SVG-20010904/DTD/svg10.dtd">
<svg version="1.0" xmlns="http://www.w3.org/2000/svg"
 width="800.000000pt" height="800.000000pt" viewBox="0 0 800.000000 800.000000"
 preserveAspectRatio="xMidYMid meet">
<metadata>
Created by potrace 1.14, written by Peter Selinger 2001-2017
</metadata>
<g transform="translate(0.000000,800.000000) scale(0.100000,-0.100000)"
fill="#000000" stroke="none">
<path d="M3758 7995 c-1 -1 -39 -6 -83 -9 -318 -26 -660 -97 -950 -196 -82
-29 -159 -54 -170 -57 -11 -3 -24 -9 -30 -13 -5 -4 -44 -21 -85 -38 -76 -30
-311 -142 -320 -152 -3 -3 -30 -18 -60 -34 -30 -15 -98 -55 -150 -87 -52 -33
-104 -65 -115 -72 -88 -54 -334 -242 -425 -323 -125 -113 -188 -174 -285 -276
-103 -109 -116 -124 -214 -249 -46 -57 -89 -112 -97 -122 -8 -9 -14 -19 -14
-22 0 -3 -9 -15 -20 -27 -15 -19 -93 -138 -177 -274 -83 -133 -206 -380 -275
-554 -54 -136 -145 -411 -162 -495 -3 -11 -16 -69 -30 -130 -13 -60 -27 -128
-31 -150 -3 -22 -7 -47 -10 -55 -4 -17 -11 -62 -20 -135 -3 -27 -8 -61 -10
-75 -26 -153 -26 -729 -1 -890 2 -14 7 -52 11 -85 4 -32 9 -68 11 -79 2 -11 6
-38 10 -60 3 -22 7 -43 9 -46 1 -3 6 -26 9 -51 22 -164 138 -548 236 -783 39
-94 173 -369 190 -391 4 -5 22 -37 40 -70 18 -33 50 -86 72 -118 21 -32 38
-60 38 -62 0 -3 14 -24 30 -47 17 -24 38 -54 48 -68 9 -14 22 -31 29 -38 7 -7
13 -17 13 -21 0 -4 8 -16 18 -27 9 -10 30 -37 47 -59 39 -53 57 -74 78 -97 9
-10 17 -20 17 -23 0 -2 12 -17 27 -33 16 -16 45 -49 67 -73 206 -235 491 -481
771 -664 66 -43 132 -86 147 -96 15 -11 29 -19 31 -19 2 0 50 -26 108 -58 233
-129 543 -259 769 -323 25 -7 50 -14 55 -15 47 -15 294 -74 327 -79 24 -4 45
-8 48 -10 3 -1 28 -6 55 -9 28 -4 61 -8 75 -11 53 -10 87 -14 153 -20 38 -3
83 -8 100 -11 56 -10 539 -12 632 -3 50 4 117 11 150 14 107 10 365 56 507 91
460 113 868 293 1283 567 50 32 92 63 93 68 2 5 10 9 18 9 8 0 14 3 14 8 0 4
17 18 38 32 20 14 39 27 42 30 3 3 25 21 50 40 25 19 50 40 56 45 6 6 30 27
53 46 24 18 57 48 75 64 328 305 533 555 763 930 55 91 170 311 222 428 117
261 239 661 275 902 4 22 8 47 11 55 4 17 11 62 20 135 3 28 8 61 10 75 26
154 27 724 0 891 -2 13 -6 50 -10 83 -4 32 -9 69 -11 82 -8 44 -12 69 -19 104
-3 19 -7 42 -9 50 -14 76 -22 110 -47 210 -49 197 -114 394 -189 575 -47 112
-176 373 -215 434 -14 23 -25 43 -25 46 0 4 -13 26 -30 50 -17 24 -30 46 -30
50 0 3 -5 11 -11 18 -6 7 -27 38 -47 69 -50 77 -166 237 -194 268 -13 14 -36
42 -51 63 -16 20 -38 48 -50 61 -12 14 -49 54 -82 91 -33 37 -100 106 -150
154 -83 81 -104 101 -182 171 -15 14 -48 41 -73 60 -24 19 -56 45 -70 58 -31
28 -193 145 -268 194 -31 20 -62 41 -69 47 -7 6 -15 11 -19 11 -3 0 -26 14
-51 30 -24 17 -45 30 -47 30 -1 0 -49 26 -107 58 -236 131 -543 260 -769 323
-53 15 -50 14 -120 33 -64 18 -259 63 -310 71 -19 3 -46 7 -60 10 -14 2 -43 7
-65 10 -23 3 -51 7 -63 10 -12 2 -52 6 -90 10 -38 3 -84 8 -103 11 -36 6 -575
15 -581 9z"/>
</g>
</svg>
